<svg width="175" height="42" viewBox="0 0 175 42" fill="none" xmlns="http://www.w3.org/2000/svg">
<path d="M21.8438 17.1523H19.7148V24.5547C18.9466 24.099 17.8398 23.7083 16.3945 23.3828C15.0404 23.0703 13.8685 22.9141 12.8789 22.9141C10.4961 22.9141 8.4974 23.3372 6.88281 24.1836C5.97135 24.6654 5.51562 25.2969 5.51562 26.0781C5.51562 27.1198 6.0625 27.6406 7.15625 27.6406C7.82031 27.6406 8.6862 27.4453 9.75391 27.0547C10.444 26.8073 11.3294 26.4948 12.4102 26.1172C12.8659 25.9609 13.6732 25.8828 14.832 25.8828C17.0846 25.8828 18.7643 26.5794 19.8711 27.9727C20.4049 28.6367 20.6719 29.418 20.6719 30.3164C20.6719 32.3867 19.3698 34.0143 16.7656 35.1992C15.6849 35.694 14.6562 35.974 13.6797 36.0391C14.6172 36.9766 15.5091 37.4453 16.3555 37.4453C16.6289 37.4453 16.9219 37.4062 17.2344 37.3281L19.207 40.5508C18.8034 40.9023 17.9766 41.0781 16.7266 41.0781C15.7109 41.0781 14.8516 40.7331 14.1484 40.043C13.7708 39.6654 13.237 38.8776 12.5469 37.6797C11.9609 36.651 11.4727 36.1302 11.082 36.1172C8.67318 36.0521 6.81771 35.6159 5.51562 34.8086C4.69531 34.3008 4.28516 33.6042 4.28516 32.7188C4.28516 31.625 4.9362 31.0781 6.23828 31.0781C6.72005 31.0781 7.72266 31.4557 9.24609 32.2109C10.7826 32.9531 12.0456 33.3242 13.0352 33.3242C15.0143 33.3242 16.8698 32.8555 18.6016 31.918C19.4479 31.4622 19.8711 30.9023 19.8711 30.2383C19.8711 29.2487 19.0898 28.7539 17.5273 28.7539C17.0456 28.7539 15.4896 29.1055 12.8594 29.8086C11.3099 30.2253 10.3594 30.4336 10.0078 30.4336C7.9375 30.4336 6.23177 29.457 4.89062 27.5039C4.23958 26.5664 3.91406 25.5573 3.91406 24.4766C3.90104 22.276 5.40495 20.7917 8.42578 20.0234C9.66276 19.7109 10.8281 19.5547 11.9219 19.5547C13.1719 19.5547 14.9427 19.8607 17.2344 20.4727V17.1523H1.6875V14.8086H21.8438V17.1523ZM40.7305 17.1523H27.7227V20.2773C27.7747 20.2773 27.8268 20.3034 27.8789 20.3555C27.931 20.4076 27.9766 20.4336 28.0156 20.4336C27.9115 20.4336 27.8529 20.4271 27.8398 20.4141C27.8398 20.349 28.8099 20.1406 30.75 19.7891C31.4661 19.6589 32.1758 19.5938 32.8789 19.5938C35.8086 19.5938 37.6901 20.4141 38.5234 22.0547C39.0833 23.1484 39.3633 25.3555 39.3633 28.6758V36.1953C39.0898 36.0911 38.0547 35.668 36.2578 34.9258C36.2578 34.5091 36.1732 34.2422 36.0039 34.125C35.3138 34.5286 34.7474 34.8346 34.3047 35.043C32.8984 35.707 31.2643 36.0391 29.4023 36.0391C26.8372 36.0391 24.8581 35.2318 23.4648 33.6172C22.7878 32.8359 22.4492 31.9635 22.4492 31C22.4492 29.9193 22.9831 28.8451 24.0508 27.7773C26.1211 25.707 28.6927 24.6719 31.7656 24.6719C33.6276 24.6719 35.125 25.1016 36.2578 25.9609V24.1641C35.6849 23.4349 35.125 22.9466 34.5781 22.6992C34.0443 22.4518 33.3086 22.3411 32.3711 22.3672C30.2747 22.4062 28.3542 22.7904 26.6094 23.5195C25.8281 23.8451 25.0664 24.138 24.3242 24.3984V22.9531C24.4935 22.8099 24.7409 22.5951 25.0664 22.3086C25.1185 22.2435 25.151 22.2044 25.1641 22.1914V17.1523H21.1602V14.8086H40.7305V17.1523ZM36.2578 29.5156C36.2578 28.9427 35.5742 28.4284 34.207 27.9727C33.0742 27.5951 32.1302 27.4062 31.375 27.4062C28.6276 27.4062 26.4271 28.3958 24.7734 30.375C24.1094 31.1693 23.7773 31.8203 23.7773 32.3281C24.0508 33.2786 25.125 33.7539 27 33.7539C29.4219 33.7539 31.6354 33.1484 33.6406 31.9375C35.3854 30.8828 36.2578 30.0755 36.2578 29.5156ZM61.4727 17.1523H40.4766V14.8086H61.4727V17.1523ZM57.2734 25.7266C57.2734 22.6016 55.7956 21.0391 52.8398 21.0391C50.6523 21.0391 48.8229 22.1849 47.3516 24.4766C46.0495 26.5078 45.3984 28.6693 45.3984 30.9609V36.6445L42.1953 34.9648V20.2773H45.5547V22.6016L47.293 21.293C48.8294 20.1341 50.4505 19.5547 52.1562 19.5547C54.474 19.5547 56.3945 20.4531 57.918 22.25C59.3503 23.9427 60.0664 25.9674 60.0664 28.3242C60.0664 31.2799 58.8164 34.1185 56.3164 36.8398L52.5469 34.4766C53.7188 33.3177 54.7148 32.25 55.5352 31.2734C56.694 29.8932 57.2734 28.0443 57.2734 25.7266ZM81.0234 17.1523H78.8945V24.5547C78.1263 24.099 77.0195 23.7083 75.5742 23.3828C74.2201 23.0703 73.0482 22.9141 72.0586 22.9141C69.6758 22.9141 67.6771 23.3372 66.0625 24.1836C65.151 24.6654 64.6953 25.2969 64.6953 26.0781C64.6953 27.1198 65.2422 27.6406 66.3359 27.6406C67 27.6406 67.8659 27.4453 68.9336 27.0547C69.6237 26.8073 70.5091 26.4948 71.5898 26.1172C72.0456 25.9609 72.8529 25.8828 74.0117 25.8828C76.2643 25.8828 77.944 26.5794 79.0508 27.9727C79.5846 28.6367 79.8516 29.418 79.8516 30.3164C79.8516 32.3867 78.5495 34.0143 75.9453 35.1992C74.8646 35.694 73.8359 35.974 72.8594 36.0391C73.7969 36.9766 74.6888 37.4453 75.5352 37.4453C75.8086 37.4453 76.1016 37.4062 76.4141 37.3281L78.3867 40.5508C77.9831 40.9023 77.1562 41.0781 75.9062 41.0781C74.8906 41.0781 74.0312 40.7331 73.3281 40.043C72.9505 39.6654 72.4167 38.8776 71.7266 37.6797C71.1406 36.651 70.6523 36.1302 70.2617 36.1172C67.8529 36.0521 65.9974 35.6159 64.6953 34.8086C63.875 34.3008 63.4648 33.6042 63.4648 32.7188C63.4648 31.625 64.1159 31.0781 65.418 31.0781C65.8997 31.0781 66.9023 31.4557 68.4258 32.2109C69.9622 32.9531 71.2253 33.3242 72.2148 33.3242C74.194 33.3242 76.0495 32.8555 77.7812 31.918C78.6276 31.4622 79.0508 30.9023 79.0508 30.2383C79.0508 29.2487 78.2695 28.7539 76.707 28.7539C76.2253 28.7539 74.6693 29.1055 72.0391 29.8086C70.4896 30.2253 69.5391 30.4336 69.1875 30.4336C67.1172 30.4336 65.4115 29.457 64.0703 27.5039C63.4193 26.5664 63.0938 25.5573 63.0938 24.4766C63.0807 22.276 64.5846 20.7917 67.6055 20.0234C68.8424 19.7109 70.0078 19.5547 71.1016 19.5547C72.3516 19.5547 74.1224 19.8607 76.4141 20.4727V17.1523H60.8672V14.8086H81.0234V17.1523ZM99.0312 17.1523H86.2188V22.1914C86.987 21.7487 88.2435 21.1693 89.9883 20.4531C90.7044 20.2578 91.5703 20.1602 92.5859 20.1602C93.9792 20.1602 95.2227 20.5443 96.3164 21.3125C97.5404 22.1589 98.1523 23.2526 98.1523 24.5938C98.1523 26.4036 97.1172 27.7188 95.0469 28.5391C94.1875 28.8776 93.4453 29.0469 92.8203 29.0469L97.3516 34.5547L94.8711 36.3516L87.8984 28.0703L89.1875 25.3945C89.8776 25.5898 90.6003 25.6875 91.3555 25.6875C92.4622 25.6875 93.3672 25.4271 94.0703 24.9062C94.8646 24.3333 95.2617 23.513 95.2617 22.4453C95.2617 21.4036 94.5195 20.8828 93.0352 20.8828C91.9935 20.8828 90.8867 21.3841 89.7148 22.3867C88.8815 23.1029 88.1198 23.9688 87.4297 24.9844C86.5964 26.2083 86.1797 27.2565 86.1797 28.1289V36.3125L82.8203 34.8086V17.1523H80.3398V14.8086H82.7031C82.7031 11.0716 82.026 7.96615 80.6719 5.49219C80.4115 5.01042 79.9102 4.28776 79.168 3.32422C78.4648 2.39974 77.9766 1.66406 77.7031 1.11719H81.668C82.4362 1.83333 83.2305 3.01172 84.0508 4.65234C85.444 7.4388 86.1406 10.8242 86.1406 14.8086H99.0312V17.1523ZM118.348 17.1523H98.6016V14.8086H118.348V17.1523ZM116.727 24.1641C116.727 24.9323 116.264 25.7982 115.34 26.7617C114.559 27.582 113.738 28.194 112.879 28.5977L109.949 25.2773C110.835 25.1992 111.674 24.8737 112.469 24.3008C113.38 23.6497 113.836 22.9076 113.836 22.0742C113.836 21.6315 113.549 21.2539 112.977 20.9414C112.482 20.6549 111.993 20.5117 111.512 20.5117C110.509 20.5117 109.435 20.9935 108.289 21.957C105.958 23.9102 104.793 26.0716 104.793 28.4414V36.7227L101.043 34.7695V20.3164H104.832V21.8008C105.392 21.2409 106.551 20.6549 108.309 20.043C109.168 19.7435 110.053 19.5938 110.965 19.5938C112.853 19.5938 114.454 20.3164 115.77 21.7617C116.408 22.4648 116.727 23.2656 116.727 24.1641ZM124.617 12.7578C124.565 12.8099 124.415 12.8359 124.168 12.8359C123.96 12.8359 123.777 12.8099 123.621 12.7578L122.352 10.1602C121.831 9.33984 121.121 8.78646 120.223 8.5C119.337 8.20052 118.79 7.875 118.582 7.52344C118.387 6.92448 118.009 6.00651 117.449 4.76953V4.32031H118.211C119.214 4.63281 120.027 4.92578 120.652 5.19922C121.681 5.65495 122.371 6.18229 122.723 6.78125C122.918 7.10677 123.217 7.9401 123.621 9.28125C123.999 10.5443 124.318 11.4232 124.578 11.918C124.604 12.1523 124.617 12.4323 124.617 12.7578ZM125.77 17.1523H117.82V14.8086H125.77V17.1523ZM123.543 36.4492L120.262 34.6328V19.5547H123.543V36.4492ZM142.918 17.1523H133.035V32.875C133.035 33.3177 133.178 33.7474 133.465 34.1641C133.764 34.6198 134.129 34.8477 134.559 34.8477C136.499 34.8477 137.469 32.8424 137.469 28.832L141.395 31.0781C139.897 34.3984 137.579 36.0521 134.441 36.0391C132.618 36.026 131.199 35.1927 130.184 33.5391C129.741 32.8229 129.52 32.1068 129.52 31.3906V17.1523H125.438V14.8086H129.52V8.24609L133.035 10.6875V14.8086H142.918V17.1523ZM149.266 12.7578C149.214 12.8099 149.064 12.8359 148.816 12.8359C148.608 12.8359 148.426 12.8099 148.27 12.7578L147 10.1602C146.479 9.33984 145.77 8.78646 144.871 8.5C143.986 8.20052 143.439 7.875 143.23 7.52344C143.035 6.92448 142.658 6.00651 142.098 4.76953V4.32031H142.859C143.862 4.63281 144.676 4.92578 145.301 5.19922C146.329 5.65495 147.02 6.18229 147.371 6.78125C147.566 7.10677 147.866 7.9401 148.27 9.28125C148.647 10.5443 148.966 11.4232 149.227 11.918C149.253 12.1523 149.266 12.4323 149.266 12.7578ZM150.418 17.1523H142.469V14.8086H150.418V17.1523ZM148.191 36.4492L144.91 34.6328V19.5547H148.191V36.4492Z" fill="#F2545E"/>
<line x1="18.6464" y1="31.6464" x2="19.6464" y2="30.6464" stroke="#F2545E"/>
<line x1="19.5" y1="31" x2="19.5" y2="29" stroke="#F2545E"/>
<line x1="78.5" y1="32" x2="78.5" y2="30" stroke="#F2545E"/>
<line x1="78.7758" y1="30.9749" x2="79.2937" y2="29.6589" stroke="#F2545E"/>
<line x1="94.0802" y1="20.2789" x2="88.9293" y2="20.1202" stroke="#F2545E"/>
<line x1="112.132" y1="19.6584" x2="107.981" y2="19.4996" stroke="#F2545E"/>
<path d="M20.8438 16.1523H18.7148V23.5547C17.9466 23.099 16.8398 22.7083 15.3945 22.3828C14.0404 22.0703 12.8685 21.9141 11.8789 21.9141C9.49609 21.9141 7.4974 22.3372 5.88281 23.1836C4.97135 23.6654 4.51562 24.2969 4.51562 25.0781C4.51562 26.1198 5.0625 26.6406 6.15625 26.6406C6.82031 26.6406 7.6862 26.4453 8.75391 26.0547C9.44401 25.8073 10.3294 25.4948 11.4102 25.1172C11.8659 24.9609 12.6732 24.8828 13.832 24.8828C16.0846 24.8828 17.7643 25.5794 18.8711 26.9727C19.4049 27.6367 19.6719 28.418 19.6719 29.3164C19.6719 31.3867 18.3698 33.0143 15.7656 34.1992C14.6849 34.694 13.6562 34.974 12.6797 35.0391C13.6172 35.9766 14.5091 36.4453 15.3555 36.4453C15.6289 36.4453 15.9219 36.4062 16.2344 36.3281L18.207 39.5508C17.8034 39.9023 16.9766 40.0781 15.7266 40.0781C14.7109 40.0781 13.8516 39.7331 13.1484 39.043C12.7708 38.6654 12.237 37.8776 11.5469 36.6797C10.9609 35.651 10.4727 35.1302 10.082 35.1172C7.67318 35.0521 5.81771 34.6159 4.51562 33.8086C3.69531 33.3008 3.28516 32.6042 3.28516 31.7188C3.28516 30.625 3.9362 30.0781 5.23828 30.0781C5.72005 30.0781 6.72266 30.4557 8.24609 31.2109C9.78255 31.9531 11.0456 32.3242 12.0352 32.3242C14.0143 32.3242 15.8698 31.8555 17.6016 30.918C18.4479 30.4622 18.8711 29.9023 18.8711 29.2383C18.8711 28.2487 18.0898 27.7539 16.5273 27.7539C16.0456 27.7539 14.4896 28.1055 11.8594 28.8086C10.3099 29.2253 9.35938 29.4336 9.00781 29.4336C6.9375 29.4336 5.23177 28.457 3.89062 26.5039C3.23958 25.5664 2.91406 24.5573 2.91406 23.4766C2.90104 21.276 4.40495 19.7917 7.42578 19.0234C8.66276 18.7109 9.82812 18.5547 10.9219 18.5547C12.1719 18.5547 13.9427 18.8607 16.2344 19.4727V16.1523H0.6875V13.8086H20.8438V16.1523ZM39.7305 16.1523H26.7227V19.2773C26.7747 19.2773 26.8268 19.3034 26.8789 19.3555C26.931 19.4076 26.9766 19.4336 27.0156 19.4336C26.9115 19.4336 26.8529 19.4271 26.8398 19.4141C26.8398 19.349 27.8099 19.1406 29.75 18.7891C30.4661 18.6589 31.1758 18.5938 31.8789 18.5938C34.8086 18.5938 36.6901 19.4141 37.5234 21.0547C38.0833 22.1484 38.3633 24.3555 38.3633 27.6758V35.1953C38.0898 35.0911 37.0547 34.668 35.2578 33.9258C35.2578 33.5091 35.1732 33.2422 35.0039 33.125C34.3138 33.5286 33.7474 33.8346 33.3047 34.043C31.8984 34.707 30.2643 35.0391 28.4023 35.0391C25.8372 35.0391 23.8581 34.2318 22.4648 32.6172C21.7878 31.8359 21.4492 30.9635 21.4492 30C21.4492 28.9193 21.9831 27.8451 23.0508 26.7773C25.1211 24.707 27.6927 23.6719 30.7656 23.6719C32.6276 23.6719 34.125 24.1016 35.2578 24.9609V23.1641C34.6849 22.4349 34.125 21.9466 33.5781 21.6992C33.0443 21.4518 32.3086 21.3411 31.3711 21.3672C29.2747 21.4062 27.3542 21.7904 25.6094 22.5195C24.8281 22.8451 24.0664 23.138 23.3242 23.3984V21.9531C23.4935 21.8099 23.7409 21.5951 24.0664 21.3086C24.1185 21.2435 24.151 21.2044 24.1641 21.1914V16.1523H20.1602V13.8086H39.7305V16.1523ZM35.2578 28.5156C35.2578 27.9427 34.5742 27.4284 33.207 26.9727C32.0742 26.5951 31.1302 26.4062 30.375 26.4062C27.6276 26.4062 25.4271 27.3958 23.7734 29.375C23.1094 30.1693 22.7773 30.8203 22.7773 31.3281C23.0508 32.2786 24.125 32.7539 26 32.7539C28.4219 32.7539 30.6354 32.1484 32.6406 30.9375C34.3854 29.8828 35.2578 29.0755 35.2578 28.5156ZM60.4727 16.1523H39.4766V13.8086H60.4727V16.1523ZM56.2734 24.7266C56.2734 21.6016 54.7956 20.0391 51.8398 20.0391C49.6523 20.0391 47.8229 21.1849 46.3516 23.4766C45.0495 25.5078 44.3984 27.6693 44.3984 29.9609V35.6445L41.1953 33.9648V19.2773H44.5547V21.6016L46.293 20.293C47.8294 19.1341 49.4505 18.5547 51.1562 18.5547C53.474 18.5547 55.3945 19.4531 56.918 21.25C58.3503 22.9427 59.0664 24.9674 59.0664 27.3242C59.0664 30.2799 57.8164 33.1185 55.3164 35.8398L51.5469 33.4766C52.7188 32.3177 53.7148 31.25 54.5352 30.2734C55.694 28.8932 56.2734 27.0443 56.2734 24.7266ZM80.0234 16.1523H77.8945V23.5547C77.1263 23.099 76.0195 22.7083 74.5742 22.3828C73.2201 22.0703 72.0482 21.9141 71.0586 21.9141C68.6758 21.9141 66.6771 22.3372 65.0625 23.1836C64.151 23.6654 63.6953 24.2969 63.6953 25.0781C63.6953 26.1198 64.2422 26.6406 65.3359 26.6406C66 26.6406 66.8659 26.4453 67.9336 26.0547C68.6237 25.8073 69.5091 25.4948 70.5898 25.1172C71.0456 24.9609 71.8529 24.8828 73.0117 24.8828C75.2643 24.8828 76.944 25.5794 78.0508 26.9727C78.5846 27.6367 78.8516 28.418 78.8516 29.3164C78.8516 31.3867 77.5495 33.0143 74.9453 34.1992C73.8646 34.694 72.8359 34.974 71.8594 35.0391C72.7969 35.9766 73.6888 36.4453 74.5352 36.4453C74.8086 36.4453 75.1016 36.4062 75.4141 36.3281L77.3867 39.5508C76.9831 39.9023 76.1562 40.0781 74.9062 40.0781C73.8906 40.0781 73.0312 39.7331 72.3281 39.043C71.9505 38.6654 71.4167 37.8776 70.7266 36.6797C70.1406 35.651 69.6523 35.1302 69.2617 35.1172C66.8529 35.0521 64.9974 34.6159 63.6953 33.8086C62.875 33.3008 62.4648 32.6042 62.4648 31.7188C62.4648 30.625 63.1159 30.0781 64.418 30.0781C64.8997 30.0781 65.9023 30.4557 67.4258 31.2109C68.9622 31.9531 70.2253 32.3242 71.2148 32.3242C73.194 32.3242 75.0495 31.8555 76.7812 30.918C77.6276 30.4622 78.0508 29.9023 78.0508 29.2383C78.0508 28.2487 77.2695 27.7539 75.707 27.7539C75.2253 27.7539 73.6693 28.1055 71.0391 28.8086C69.4896 29.2253 68.5391 29.4336 68.1875 29.4336C66.1172 29.4336 64.4115 28.457 63.0703 26.5039C62.4193 25.5664 62.0938 24.5573 62.0938 23.4766C62.0807 21.276 63.5846 19.7917 66.6055 19.0234C67.8424 18.7109 69.0078 18.5547 70.1016 18.5547C71.3516 18.5547 73.1224 18.8607 75.4141 19.4727V16.1523H59.8672V13.8086H80.0234V16.1523ZM98.0312 16.1523H85.2188V21.1914C85.987 20.7487 87.2435 20.1693 88.9883 19.4531C89.7044 19.2578 90.5703 19.1602 91.5859 19.1602C92.9792 19.1602 94.2227 19.5443 95.3164 20.3125C96.5404 21.1589 97.1523 22.2526 97.1523 23.5938C97.1523 25.4036 96.1172 26.7188 94.0469 27.5391C93.1875 27.8776 92.4453 28.0469 91.8203 28.0469L96.3516 33.5547L93.8711 35.3516L86.8984 27.0703L88.1875 24.3945C88.8776 24.5898 89.6003 24.6875 90.3555 24.6875C91.4622 24.6875 92.3672 24.4271 93.0703 23.9062C93.8646 23.3333 94.2617 22.513 94.2617 21.4453C94.2617 20.4036 93.5195 19.8828 92.0352 19.8828C90.9935 19.8828 89.8867 20.3841 88.7148 21.3867C87.8815 22.1029 87.1198 22.9688 86.4297 23.9844C85.5964 25.2083 85.1797 26.2565 85.1797 27.1289V35.3125L81.8203 33.8086V16.1523H79.3398V13.8086H81.7031C81.7031 10.0716 81.026 6.96615 79.6719 4.49219C79.4115 4.01042 78.9102 3.28776 78.168 2.32422C77.4648 1.39974 76.9766 0.664062 76.7031 0.117188H80.668C81.4362 0.833333 82.2305 2.01172 83.0508 3.65234C84.444 6.4388 85.1406 9.82422 85.1406 13.8086H98.0312V16.1523ZM117.348 16.1523H97.6016V13.8086H117.348V16.1523ZM115.727 23.1641C115.727 23.9323 115.264 24.7982 114.34 25.7617C113.559 26.582 112.738 27.194 111.879 27.5977L108.949 24.2773C109.835 24.1992 110.674 23.8737 111.469 23.3008C112.38 22.6497 112.836 21.9076 112.836 21.0742C112.836 20.6315 112.549 20.2539 111.977 19.9414C111.482 19.6549 110.993 19.5117 110.512 19.5117C109.509 19.5117 108.435 19.9935 107.289 20.957C104.958 22.9102 103.793 25.0716 103.793 27.4414V35.7227L100.043 33.7695V19.3164H103.832V20.8008C104.392 20.2409 105.551 19.6549 107.309 19.043C108.168 18.7435 109.053 18.5938 109.965 18.5938C111.853 18.5938 113.454 19.3164 114.77 20.7617C115.408 21.4648 115.727 22.2656 115.727 23.1641ZM123.617 11.7578C123.565 11.8099 123.415 11.8359 123.168 11.8359C122.96 11.8359 122.777 11.8099 122.621 11.7578L121.352 9.16016C120.831 8.33984 120.121 7.78646 119.223 7.5C118.337 7.20052 117.79 6.875 117.582 6.52344C117.387 5.92448 117.009 5.00651 116.449 3.76953V3.32031H117.211C118.214 3.63281 119.027 3.92578 119.652 4.19922C120.681 4.65495 121.371 5.18229 121.723 5.78125C121.918 6.10677 122.217 6.9401 122.621 8.28125C122.999 9.54427 123.318 10.4232 123.578 10.918C123.604 11.1523 123.617 11.4323 123.617 11.7578ZM124.77 16.1523H116.82V13.8086H124.77V16.1523ZM122.543 35.4492L119.262 33.6328V18.5547H122.543V35.4492ZM141.918 16.1523H132.035V31.875C132.035 32.3177 132.178 32.7474 132.465 33.1641C132.764 33.6198 133.129 33.8477 133.559 33.8477C135.499 33.8477 136.469 31.8424 136.469 27.832L140.395 30.0781C138.897 33.3984 136.579 35.0521 133.441 35.0391C131.618 35.026 130.199 34.1927 129.184 32.5391C128.741 31.8229 128.52 31.1068 128.52 30.3906V16.1523H124.438V13.8086H128.52V7.24609L132.035 9.6875V13.8086H141.918V16.1523ZM148.266 11.7578C148.214 11.8099 148.064 11.8359 147.816 11.8359C147.608 11.8359 147.426 11.8099 147.27 11.7578L146 9.16016C145.479 8.33984 144.77 7.78646 143.871 7.5C142.986 7.20052 142.439 6.875 142.23 6.52344C142.035 5.92448 141.658 5.00651 141.098 3.76953V3.32031H141.859C142.862 3.63281 143.676 3.92578 144.301 4.19922C145.329 4.65495 146.02 5.18229 146.371 5.78125C146.566 6.10677 146.866 6.9401 147.27 8.28125C147.647 9.54427 147.966 10.4232 148.227 10.918C148.253 11.1523 148.266 11.4323 148.266 11.7578ZM149.418 16.1523H141.469V13.8086H149.418V16.1523ZM147.191 35.4492L143.91 33.6328V18.5547H147.191V35.4492Z" fill="#9E080D"/>
</svg>
